<?xml version="1.0" encoding="UTF-8"?>
<!DOCTYPE svg PUBLIC "-//W3C//DTD SVG 1.1//EN" "http://www.w3.org/Graphics/SVG/1.1/DTD/svg11.dtd">
<!-- Creator: CorelDRAW 2020 (64-Bit) -->
<svg xmlns="http://www.w3.org/2000/svg" xml:space="preserve" width="4.4028mm" height="4.4028mm" version="1.1" style="shape-rendering:geometricPrecision; text-rendering:geometricPrecision; image-rendering:optimizeQuality; fill-rule:evenodd; clip-rule:evenodd"
viewBox="0 0 597.3 597.3"
 xmlns:xlink="http://www.w3.org/1999/xlink"
 xmlns:xodm="http://www.corel.com/coreldraw/odm/2003">
 <defs>
  <style type="text/css">
   <![CDATA[
    .fil0 {fill:#4F7DF3;fill-rule:nonzero}
   ]]>
  </style>
 </defs>
 <g id="Capa_x0020_1">
  <metadata id="CorelCorpID_0Corel-Layer"/>
  <path class="fil0" d="M173.38 0.01c-95.48,0 -173.36,77.88 -173.36,173.36l0 250.54c0,95.48 77.88,173.36 173.36,173.36l250.54 0c95.48,0 173.36,-77.88 173.36,-173.36l0 -250.54c0,-95.48 -77.88,-173.36 -173.36,-173.36l-250.54 0zm0 45.95l250.54 0c70.61,0 127.41,56.71 127.41,127.41l0 250.54c0,70.61 -56.71,127.41 -127.41,127.41l-250.54 0c-70.61,0 -127.41,-56.71 -127.41,-127.41l0 -250.54c0,-70.61 56.71,-127.41 127.41,-127.41zm297.56 45.94c-19.02,0 -34.46,15.44 -34.46,34.46 0,19.02 15.44,34.46 34.46,34.46 19.02,0 34.46,-15.44 34.46,-34.46 0,-19.02 -15.44,-34.46 -34.46,-34.46zm-172.29 45.95c-88.57,0 -160.8,72.23 -160.8,160.8 0,88.57 72.23,160.8 160.8,160.8 88.57,0 160.8,-72.23 160.8,-160.8 0,-88.57 -72.23,-160.8 -160.8,-160.8zm0 45.94c63.71,0 114.87,51.16 114.87,114.87 0,63.71 -51.16,114.87 -114.87,114.87 -63.71,0 -114.87,-51.16 -114.87,-114.87 0,-63.71 51.16,-114.87 114.87,-114.87z"/>
 </g>
</svg>
